<svg width="121" height="177" viewBox="0 0 121 177" fill="none" xmlns="http://www.w3.org/2000/svg">
<path d="M0 12C0 5.37258 5.37258 0 12 0H77.5596C101.551 0 121 19.4489 121 43.4404C121 67.4319 101.551 86.8809 77.5596 86.8809H0V12Z" fill="#4A8DFF"/>
<rect y="65.502" width="44.8652" height="60.4982" rx="22.4326" fill="#0BE4FF"/>
<path fill-rule="evenodd" clip-rule="evenodd" d="M0 72.4687V86.8809H44.8652V72.4687C44.8652 60.0795 34.8218 50.0361 22.4326 50.0361C10.0434 50.0361 0 60.0795 0 72.4687Z" fill="#1045A0"/>
<path d="M0 177V151.318H6.49609V154.78H6.64248C7.64891 152.353 9.77158 150.907 12.6079 150.907C17.6401 150.907 20.5679 154.602 20.5679 161.027V161.045C20.5679 167.434 17.6584 171.164 12.6811 171.164C9.80818 171.164 7.61232 169.754 6.62418 167.416H6.49609V177H0ZM10.2291 166.024C12.5164 166.024 13.9803 164.114 13.9803 161.045V161.027C13.9803 157.921 12.5164 156.065 10.2291 156.065C7.97829 156.065 6.45949 157.939 6.45949 161.045V161.062C6.45949 164.132 7.95999 166.024 10.2291 166.024Z" fill="black"/>
<path d="M24.5318 170.753V145H31.0279V170.753H24.5318Z" fill="black"/>
<path d="M42.3296 171.164C37.9562 171.164 35.4676 168.433 35.4676 163.829V151.318H41.9637V162.472C41.9637 164.703 43.025 166.024 45.166 166.024C47.2154 166.024 48.5146 164.507 48.5146 162.347V151.318H54.9924V170.753H48.5146V167.327H48.3865C47.3801 169.772 45.3489 171.164 42.3296 171.164Z" fill="black"/>
<path d="M59.4321 177V151.318H65.9282V154.78H66.0746C67.081 152.353 69.2037 150.907 72.04 150.907C77.0722 150.907 80 154.602 80 161.027V161.045C80 167.434 77.0905 171.164 72.1132 171.164C69.2403 171.164 67.0444 169.754 66.0563 167.416H65.9282V177H59.4321ZM69.6612 166.024C71.9485 166.024 73.4124 164.114 73.4124 161.045V161.027C73.4124 157.921 71.9485 156.065 69.6612 156.065C67.4104 156.065 65.8916 157.939 65.8916 161.045V161.062C65.8916 164.132 67.3921 166.024 69.6612 166.024Z" fill="black"/>
</svg>
